<?xml version="1.0" encoding="utf-8"?>
<svg xmlns="http://www.w3.org/2000/svg" viewBox="0 0 500 500" xmlns:bx="https://boxy-svg.com">
  <rect x="0.037" y="0.196" width="499.887" height="499.878" rx="98.645" ry="98.645" style="fill: rgb(44, 44, 44);"/>
  <g fill="#ffffff" transform="matrix(14.076533, 0, 0, 13.345914, 102.918488, -196.974075)" style="">
    <g transform="matrix(1, 0, 0, 1, -0.177848, 0.657103)">
      <path d="M 19.35 24.76 C 19.95 24.76 20.433 24.923 20.8 25.249 C 21.167 25.58 21.35 25.988 21.35 26.474 L 21.35 38.171 C 21.35 41.055 20.41 43.292 18.53 44.88 C 16.643 46.462 14.017 47.253 10.65 47.253 C 7.317 47.253 4.71 46.462 2.83 44.88 C 0.943 43.292 0 41.055 0 38.171 L 0 26.474 C 0 25.988 0.193 25.58 0.58 25.249 C 0.96 24.923 1.433 24.76 2 24.76 C 2.6 24.76 3.083 24.923 3.45 25.249 C 3.817 25.58 4 25.988 4 26.474 L 4 38.171 C 4 40.113 4.583 41.583 5.75 42.583 C 6.917 43.582 8.55 44.083 10.65 44.083 C 12.817 44.083 14.477 43.582 15.63 42.583 C 16.777 41.583 17.35 40.113 17.35 38.171 L 17.35 26.474 C 17.35 25.988 17.543 25.58 17.93 25.249 C 18.31 24.923 18.783 24.76 19.35 24.76 M 15.2 21.204 C 14.433 21.204 13.85 21.048 13.45 20.733 C 13.05 20.419 12.85 19.961 12.85 19.362 L 12.85 18.805 C 12.85 18.148 13.067 17.677 13.5 17.391 C 13.933 17.105 14.533 16.963 15.3 16.963 C 16.067 16.963 16.65 17.112 17.05 17.409 C 17.45 17.711 17.65 18.177 17.65 18.805 L 17.65 19.362 C 17.65 20.019 17.45 20.491 17.05 20.776 C 16.65 21.061 16.033 21.204 15.2 21.204 M 6.15 21.204 C 5.383 21.204 4.8 21.048 4.4 20.733 C 4 20.419 3.8 19.961 3.8 19.362 L 3.8 18.805 C 3.8 18.177 4.007 17.711 4.42 17.409 C 4.84 17.112 5.433 16.963 6.2 16.963 C 7 16.963 7.6 17.105 8 17.391 C 8.4 17.677 8.6 18.148 8.6 18.805 L 8.6 19.362 C 8.6 20.019 8.4 20.491 8 20.776 C 7.6 21.061 6.983 21.204 6.15 21.204 Z" style=""/>
    </g>
  </g>
  <defs>
    <bx:grid x="0.237" y="0.21" width="50.089" height="50.912"/>
  </defs>
</svg>