<svg xmlns="http://www.w3.org/2000/svg" viewBox="0 15.050000190734863 21.350000381469727 35.35000228881836" data-asc="1" width="21.350000381469727" height="35.35000228881836"><defs/><g fill="#ffffff"><g transform="translate(0, 0)"><path d="M19.35 24.15Q20.25 24.15 20.80 24.72Q21.35 25.30 21.35 26.15L21.35 39.80Q21.35 44.85 18.53 47.63Q15.70 50.40 10.65 50.40Q5.65 50.40 2.83 47.63Q0 44.85 0 39.80L0 26.15Q0 25.30 0.58 24.72Q1.15 24.15 2 24.15Q2.90 24.15 3.45 24.72Q4 25.30 4 26.15L4 39.80Q4 43.20 5.75 44.95Q7.50 46.70 10.65 46.70Q13.90 46.70 15.63 44.95Q17.35 43.20 17.35 39.80L17.35 26.15Q17.35 25.30 17.93 24.72Q18.50 24.15 19.35 24.15M15.20 20Q14.05 20 13.45 19.45Q12.85 18.90 12.85 17.85L12.85 17.20Q12.85 16.05 13.50 15.55Q14.15 15.05 15.30 15.05Q16.45 15.05 17.05 15.57Q17.65 16.10 17.65 17.20L17.65 17.85Q17.65 19 17.05 19.50Q16.45 20 15.20 20M6.15 20Q5.00 20 4.40 19.45Q3.80 18.90 3.80 17.85L3.80 17.20Q3.80 16.10 4.42 15.57Q5.05 15.05 6.20 15.05Q7.40 15.05 8 15.55Q8.60 16.05 8.60 17.20L8.60 17.85Q8.60 19 8 19.50Q7.40 20 6.15 20Z"/></g></g></svg>