<svg xmlns="http://www.w3.org/2000/svg" width="193.78285570144652px" height="75.9px" viewBox="-16.5 -55.45 193.78285570144652 75.9"><path d="M23.10-26.30L23.10-26.30Q24.15-26.30 24.88-25.58Q25.60-24.85 25.60-23.75L25.60-23.75L25.60-10.60Q25.60-5.40 22.70-2.48Q19.80 0.45 14.50 0.45L14.50 0.45Q9.25 0.45 6.38-2.48Q3.50-5.40 3.50-10.60L3.50-10.60L3.50-23.75Q3.50-24.85 4.20-25.58Q4.90-26.30 6-26.30L6-26.30Q7.05-26.30 7.78-25.58Q8.50-24.85 8.50-23.75L8.50-23.75L8.50-10.60Q8.50-7.35 10.03-5.75Q11.55-4.15 14.50-4.15L14.50-4.15Q17.50-4.15 19.05-5.75Q20.60-7.35 20.60-10.60L20.60-10.60L20.60-23.75Q20.60-24.85 21.30-25.58Q22-26.30 23.10-26.30ZM19.25-30L19.25-30Q17.85-30 17.23-30.55Q16.60-31.10 16.60-32.35L16.60-32.35L16.60-33.10Q16.60-34.40 17.30-34.93Q18-35.45 19.30-35.45L19.30-35.45Q20.75-35.45 21.40-34.90Q22.05-34.35 22.05-33.10L22.05-33.10L22.05-32.35Q22.05-31 21.38-30.50Q20.70-30 19.25-30ZM9.75-30L9.75-30Q8.35-30 7.73-30.55Q7.10-31.10 7.10-32.35L7.10-32.35L7.10-33.10Q7.10-34.35 7.78-34.90Q8.45-35.45 9.75-35.45L9.75-35.45Q11.25-35.45 11.90-34.93Q12.55-34.40 12.55-33.10L12.55-33.10L12.55-32.35Q12.55-31 11.88-30.50Q11.20-30 9.75-30ZM59.35-35L59.35-35Q60.35-35 60.98-34.33Q61.60-33.65 61.60-32.65L61.60-32.65L61.60-2.55Q61.60-1.45 60.88-0.73Q60.15 0 59.05 0L59.05 0Q58.55 0 57.98-0.20Q57.40-0.40 57.10-0.75L57.10-0.75L36.55-27.40L37.70-28.05L37.70-2.30Q37.70-1.35 37.05-0.68Q36.40 0 35.40 0L35.40 0Q34.35 0 33.73-0.68Q33.10-1.35 33.10-2.30L33.10-2.30L33.10-32.45Q33.10-33.60 33.85-34.30Q34.60-35 35.65-35L35.65-35Q36.20-35 36.83-34.77Q37.45-34.55 37.75-34.10L37.75-34.10L57.80-8L57.05-7.30L57.05-32.65Q57.05-33.65 57.70-34.33Q58.35-35 59.35-35ZM81.15 0L81.15 0Q79.95 0 79.23-0.73Q78.50-1.45 78.50-2.55L78.50-2.55L78.50-32.50L83.85-32.50L83.85-2.55Q83.85-1.45 83.08-0.73Q82.30 0 81.15 0ZM92.55-30.20L69.80-30.20Q68.75-30.20 68-30.88Q67.25-31.55 67.25-32.65L67.25-32.65Q67.25-33.70 68-34.35Q68.75-35 69.80-35L69.80-35L92.55-35Q93.60-35 94.33-34.33Q95.05-33.65 95.05-32.60L95.05-32.60Q95.05-31.50 94.33-30.85Q93.60-30.20 92.55-30.20L92.55-30.20ZM103.25-35L103.25-35L120.55-35Q121.60-35 122.33-34.30Q123.05-33.60 123.05-32.55L123.05-32.55Q123.05-31.50 122.33-30.85Q121.60-30.20 120.55-30.20L120.55-30.20L105.45-30.20L105.95-31.05L105.95-19.85L105.50-20.35L118.30-20.35Q119.35-20.35 120.08-19.65Q120.80-18.95 120.80-17.85L120.80-17.85Q120.80-16.80 120.08-16.15Q119.35-15.50 118.30-15.50L118.30-15.50L105.60-15.50L105.95-15.95L105.95-4.40L105.60-4.80L120.55-4.80Q121.60-4.80 122.33-4.08Q123.05-3.35 123.05-2.40L123.05-2.40Q123.05-1.35 122.33-0.68Q121.60 0 120.55 0L120.55 0L103.25 0Q102.20 0 101.45-0.73Q100.70-1.45 100.70-2.55L100.70-2.55L100.70-32.45Q100.70-33.55 101.45-34.27Q102.20-35 103.25-35ZM132.25 0L132.25 0Q131.05 0 130.15-0.73Q129.25-1.45 129.25-2.55L129.25-2.55L129.25-32.45Q129.25-33.55 130-34.27Q130.75-35 131.80-35L131.80-35L145.90-35Q148.60-35 150.85-33.68Q153.10-32.35 154.47-30.03Q155.85-27.70 155.85-24.70L155.85-24.70Q155.85-22.70 155.05-20.88Q154.25-19.05 152.90-17.65Q151.55-16.25 149.85-15.55L149.85-15.55L149.30-16.50Q150.85-15.95 152-14.93Q153.15-13.90 153.82-12.53Q154.50-11.15 154.55-9.40L154.55-9.40Q154.70-7.85 154.82-6.83Q154.95-5.80 155.20-5.15Q155.45-4.50 156.10-4.15L156.10-4.15Q157-3.65 157.22-2.65Q157.45-1.65 156.80-0.85L156.80-0.85Q156.35-0.25 155.68-0.08Q155 0.10 154.30-0.03Q153.60-0.15 153.10-0.40L153.10-0.40Q152.30-0.90 151.47-1.83Q150.65-2.75 150.15-4.40Q149.65-6.05 149.65-8.75L149.65-8.75Q149.65-10 149.25-10.90Q148.85-11.80 148.15-12.38Q147.45-12.95 146.50-13.23Q145.55-13.50 144.40-13.50L144.40-13.50L133.80-13.50L134.50-14.50L134.50-2.55Q134.50-1.45 133.90-0.73Q133.30 0 132.25 0ZM134.50-16.80L133.85-17.85L145.80-17.85Q146.95-17.90 148.03-18.78Q149.10-19.65 149.78-21.15Q150.45-22.65 150.45-24.55L150.45-24.55Q150.45-26.95 149.03-28.58Q147.60-30.20 145.65-30.20L145.65-30.20L133.95-30.20L134.50-31.50L134.50-16.80Z" fill="currentColor"/></svg>